<svg xmlns="http://www.w3.org/2000/svg" width="92" height="78" viewBox="0 0 92 78"><path d="M61.896 45.548c-3.59 0-6.502 4.026-6.502 8.996 0 4.97 2.912 9 6.502 9 3.588 0 6.498-4.03 6.498-9s-2.91-8.996-6.498-8.996zm22.63-23.416c.74-1.826.778-12.2-3.17-22.132 0 0-9.056.993-22.76 10.396-2.87-.793-7.735-1.19-12.596-1.19s-9.723.396-12.598 1.19C19.7.992 10.645 0 10.645 0 6.697 9.93 6.732 20.306 7.473 22.132 2.833 27.17 0 33.218 0 41.482c0 35.933 29.81 36.51 37.334 36.51 1.703 0 5.088.003 8.666.008 3.578-.005 6.965-.01 8.666-.01C62.19 77.99 92 77.416 92 41.484c0-8.265-2.834-14.314-7.473-19.35zM46.142 73.574h-.28c-18.86 0-33.545-2.252-33.545-20.58 0-4.39 1.55-8.465 5.23-11.847 6.14-5.636 16.526-2.65 28.315-2.65.045 0 .093-.002.14-.004l.142.003c11.79 0 22.178-2.984 28.316 2.65 3.68 3.383 5.23 7.46 5.23 11.848C79.685 71.322 65 73.574 46.14 73.574zM30.105 45.548c-3.588 0-6.498 4.026-6.498 8.996 0 4.97 2.91 9 6.498 9 3.592 0 6.502-4.03 6.502-9s-2.91-8.996-6.502-8.996z"/></svg>