<svg xmlns="http://www.w3.org/2000/svg" width="100" height="100" viewBox="0 0 100 100"><path d="M53.267 56.855l-4.533-3.522c-1.38-1.144-3.27-2.656-3.27-5.422 0-2.777 1.89-4.543 3.527-6.18 5.28-4.156 10.558-8.58 10.558-17.902 0-9.586-6.03-14.63-8.923-17.022h7.795l8.18-5.14H41.817c-6.8 0-16.603 1.608-23.78 7.533-5.407 4.665-8.045 11.098-8.045 16.89 0 9.832 7.55 19.8 20.88 19.8 1.26 0 2.637-.125 4.023-.253-.623 1.515-1.252 2.777-1.252 4.917 0 3.905 2.007 6.3 3.775 8.567-5.663.39-16.237 1.02-24.033 5.81-7.424 4.415-9.684 10.84-9.684 15.376 0 9.335 8.8 18.03 27.045 18.03 21.636 0 33.09-11.972 33.09-23.824 0-8.708-5.03-12.993-10.566-17.657zm-16.48-14.498c-10.823 0-15.726-13.992-15.726-22.434 0-3.288.624-6.682 2.764-9.333 2.02-2.524 5.533-4.162 8.814-4.162 10.434 0 15.846 14.118 15.846 23.197 0 2.27-.25 6.296-3.144 9.207-2.023 2.02-5.41 3.525-8.552 3.525zm.125 50.696c-13.46 0-22.14-6.438-22.14-15.392 0-8.948 8.05-11.976 10.817-12.978 5.28-1.778 12.075-2.025 13.21-2.025 1.257 0 1.886 0 2.888.126 9.568 6.81 13.72 10.203 13.72 16.65.002 7.806-6.416 13.62-18.496 13.62zM85.036 42.165V29.56H78.81v12.605H66.227v6.294H78.81V61.14h6.226V48.46h12.648v-6.295z"/></svg>